<svg xmlns="http://www.w3.org/2000/svg" xmlns:xlink="http://www.w3.org/1999/xlink" width="500" zoomAndPan="magnify" viewBox="0 0 375 374.999991" height="500" preserveAspectRatio="xMidYMid meet" version="1.0"><defs><g/><clipPath id="646d9288f0"><path d="M 62 61 L 313 61 L 313 311 L 62 311 Z M 62 61 " clip-rule="nonzero"/></clipPath><clipPath id="449d75df36"><path d="M 92.738281 37.5 L 336.0625 91.300781 L 282.261719 334.625 L 38.9375 280.824219 Z M 92.738281 37.5 " clip-rule="nonzero"/></clipPath><clipPath id="23359590dc"><path d="M 214.398438 64.398438 C 147.207031 49.542969 80.695312 91.96875 65.835938 159.164062 C 50.980469 226.355469 93.40625 292.867188 160.601562 307.722656 C 227.792969 322.582031 294.304688 280.152344 309.160156 212.960938 C 324.019531 145.769531 281.589844 79.257812 214.398438 64.398438 Z M 214.398438 64.398438 " clip-rule="nonzero"/></clipPath><clipPath id="3341af7b66"><path d="M 69 68 L 306 68 L 306 306 L 69 306 Z M 69 68 " clip-rule="nonzero"/></clipPath><clipPath id="2b8528ed29"><path d="M 97.394531 45.492188 L 328.757812 96.648438 L 277.601562 328.007812 L 46.242188 276.855469 Z M 97.394531 45.492188 " clip-rule="nonzero"/></clipPath><clipPath id="6b56782422"><path d="M 213.074219 71.070312 C 149.1875 56.945312 85.945312 97.285156 71.820312 161.171875 C 57.691406 225.0625 98.035156 288.304688 161.921875 302.429688 C 225.8125 316.558594 289.054688 276.214844 303.179688 212.328125 C 317.304688 148.4375 276.964844 85.195312 213.074219 71.070312 Z M 213.074219 71.070312 " clip-rule="nonzero"/></clipPath><clipPath id="001df0acd3"><path d="M 76 74 L 299 74 L 299 301 L 76 301 Z M 76 74 " clip-rule="nonzero"/></clipPath><clipPath id="76388b1d07"><path d="M 302.644531 296.542969 L 80.789062 304.519531 L 72.652344 78.164062 L 294.507812 70.191406 Z M 302.644531 296.542969 " clip-rule="nonzero"/></clipPath><clipPath id="f0039653b8"><path d="M 302.644531 296.542969 L 80.789062 304.519531 L 72.652344 78.164062 L 294.507812 70.191406 Z M 302.644531 296.542969 " clip-rule="nonzero"/></clipPath><clipPath id="183e11a915"><path d="M 82 82 L 293 82 L 293 293 L 82 293 Z M 82 82 " clip-rule="nonzero"/></clipPath><clipPath id="62a7d2622e"><path d="M 71.148438 279.058594 L 95.933594 71.140625 L 303.851562 95.925781 L 279.066406 303.84375 Z M 71.148438 279.058594 " clip-rule="nonzero"/></clipPath><clipPath id="3171a6a9f9"><path d="M 83.542969 175.097656 C 76.699219 232.511719 117.695312 284.605469 175.109375 291.449219 C 232.523438 298.292969 284.613281 257.296875 291.457031 199.882812 C 298.300781 142.46875 257.308594 90.378906 199.894531 83.535156 C 142.480469 76.691406 90.386719 117.683594 83.542969 175.097656 Z M 83.542969 175.097656 " clip-rule="nonzero"/></clipPath><clipPath id="bb4440f84c"><path d="M 195.070312 111.390625 L 222.070312 111.390625 L 222.070312 138.390625 L 195.070312 138.390625 Z M 195.070312 111.390625 " clip-rule="nonzero"/></clipPath><clipPath id="f6d2500e6d"><path d="M 195.070312 112 L 222 112 L 222 138 L 195.070312 138 Z M 195.070312 112 " clip-rule="nonzero"/></clipPath></defs><g clip-path="url(#646d9288f0)"><g clip-path="url(#449d75df36)"><g clip-path="url(#23359590dc)"><path fill="#fdf9f7" d="M 92.738281 37.5 L 336.0625 91.300781 L 282.261719 334.625 L 38.9375 280.824219 Z M 92.738281 37.5 " fill-opacity="1" fill-rule="nonzero"/></g></g></g><g clip-path="url(#3341af7b66)"><g clip-path="url(#2b8528ed29)"><g clip-path="url(#6b56782422)"><path fill="#0d0e32" d="M 97.394531 45.492188 L 328.757812 96.648438 L 277.601562 328.007812 L 46.242188 276.855469 Z M 97.394531 45.492188 " fill-opacity="1" fill-rule="nonzero"/></g></g></g><g clip-path="url(#001df0acd3)"><g clip-path="url(#76388b1d07)"><g clip-path="url(#f0039653b8)"><path fill="#ffffff" d="M 298.128906 178.902344 C 299.089844 197.867188 295.035156 215.832031 287.089844 232.953125 C 282.824219 242.136719 277.335938 250.566406 270.839844 258.375 C 260.804688 270.445312 248.882812 280.140625 235.023438 287.457031 C 225 292.75 214.398438 296.519531 203.234375 298.445312 C 197.027344 299.515625 190.730469 300.5625 184.386719 300.230469 C 180.105469 300 175.816406 299.925781 171.527344 299.542969 C 159.558594 298.484375 148.339844 295.058594 137.535156 290.046875 C 129.515625 286.324219 122.214844 281.457031 115.363281 275.875 C 110.839844 272.1875 106.804688 268.039062 103 263.640625 C 101.945312 262.421875 101.816406 260.949219 102.785156 260.179688 C 104.015625 259.207031 105.183594 259.5 106.207031 260.59375 C 108.292969 262.820312 110.324219 265.085938 112.515625 267.214844 C 124.800781 279.171875 139.191406 287.441406 155.691406 292.039062 C 162.136719 293.832031 168.679688 294.996094 175.382812 295.425781 C 178.886719 295.648438 182.402344 295.894531 185.890625 295.890625 C 189.617188 295.890625 193.363281 295.363281 197.078125 294.875 C 204.289062 293.921875 211.359375 292.292969 218.21875 289.859375 C 229.867188 285.726562 240.585938 279.914062 250.285156 272.191406 C 255.902344 267.71875 261.175781 262.898438 265.855469 257.46875 C 274.460938 247.480469 281.203125 236.34375 286.023438 224.058594 C 288.90625 216.714844 290.980469 209.164062 292.292969 201.386719 C 292.824219 198.246094 293.082031 195.082031 293.453125 191.929688 C 294.390625 183.96875 294.179688 175.992188 292.996094 168.152344 C 291.335938 157.203125 288.277344 146.578125 283.382812 136.546875 C 279.554688 128.699219 274.910156 121.390625 269.269531 114.738281 C 262.628906 106.90625 254.992188 100.226562 246.28125 94.738281 C 234.96875 87.613281 222.773438 82.898438 209.613281 80.582031 C 200.882812 79.046875 192.082031 78.417969 183.28125 79.265625 C 167.277344 80.808594 152.167969 85.429688 138.222656 93.535156 C 129.152344 98.808594 120.984375 105.210938 113.636719 112.742188 C 103.285156 123.347656 95.433594 135.523438 89.75 149.140625 C 85.617188 159.046875 83.019531 169.390625 81.921875 180.058594 C 81.402344 185.105469 81.125 190.203125 81.34375 195.289062 C 81.863281 207.355469 83.964844 219.121094 88.386719 230.414062 C 88.664062 231.125 88.992188 231.828125 89.164062 232.5625 C 89.394531 233.527344 89.308594 234.617188 88.222656 234.882812 C 87.214844 235.128906 85.929688 235.792969 85.167969 234.234375 C 83.976562 231.800781 83.070312 229.25 82.269531 226.683594 C 80.261719 220.265625 78.589844 213.753906 77.84375 207.046875 C 77.058594 200.011719 76.5 192.921875 76.921875 185.871094 C 78.167969 165.007812 84.359375 145.65625 95.683594 128.023438 C 100.363281 120.746094 105.757812 114.003906 111.9375 107.960938 C 123.253906 96.894531 136.191406 88.242188 150.972656 82.414062 C 158.035156 79.632812 165.292969 77.574219 172.726562 76.160156 C 180.535156 74.671875 188.492188 74.265625 196.378906 74.558594 C 210.386719 75.082031 223.847656 78.367188 236.59375 84.285156 C 244.980469 88.175781 252.734375 93.097656 259.820312 99.066406 C 277.140625 113.652344 288.546875 131.996094 294.527344 153.753906 C 295.660156 157.863281 296.410156 162.089844 297.1875 166.285156 C 297.945312 170.445312 297.941406 174.683594 298.128906 178.902344 Z M 298.128906 178.902344 " fill-opacity="1" fill-rule="nonzero"/></g></g></g><g clip-path="url(#183e11a915)"><g clip-path="url(#62a7d2622e)"><g clip-path="url(#3171a6a9f9)"><path fill="#00adef" d="M 71.148438 279.058594 L 95.933594 71.140625 L 303.851562 95.925781 L 279.066406 303.84375 Z M 71.148438 279.058594 " fill-opacity="1" fill-rule="nonzero"/></g></g></g><g clip-path="url(#bb4440f84c)"><path fill="#ffb300" d="M 222.070312 124.890625 C 222.070312 125.777344 221.984375 126.652344 221.8125 127.523438 C 221.636719 128.394531 221.382812 129.238281 221.042969 130.054688 C 220.703125 130.875 220.289062 131.652344 219.796875 132.390625 C 219.304688 133.125 218.742188 133.808594 218.117188 134.4375 C 217.488281 135.0625 216.808594 135.621094 216.070312 136.113281 C 215.332031 136.605469 214.554688 137.023438 213.738281 137.363281 C 212.917969 137.703125 212.074219 137.957031 211.203125 138.128906 C 210.335938 138.304688 209.457031 138.390625 208.570312 138.390625 C 207.683594 138.390625 206.804688 138.304688 205.9375 138.128906 C 205.066406 137.957031 204.222656 137.703125 203.402344 137.363281 C 202.585938 137.023438 201.808594 136.605469 201.070312 136.113281 C 200.332031 135.621094 199.652344 135.0625 199.023438 134.4375 C 198.398438 133.808594 197.839844 133.125 197.34375 132.390625 C 196.851562 131.652344 196.4375 130.875 196.097656 130.054688 C 195.757812 129.238281 195.503906 128.394531 195.328125 127.523438 C 195.15625 126.652344 195.070312 125.777344 195.070312 124.890625 C 195.070312 124.003906 195.15625 123.125 195.328125 122.257812 C 195.503906 121.386719 195.757812 120.542969 196.097656 119.722656 C 196.4375 118.90625 196.851562 118.125 197.34375 117.390625 C 197.839844 116.652344 198.398438 115.96875 199.023438 115.34375 C 199.652344 114.71875 200.332031 114.15625 201.070312 113.664062 C 201.808594 113.171875 202.585938 112.757812 203.402344 112.417969 C 204.222656 112.078125 205.066406 111.820312 205.9375 111.648438 C 206.804688 111.476562 207.683594 111.390625 208.570312 111.390625 C 209.457031 111.390625 210.335938 111.476562 211.203125 111.648438 C 212.074219 111.820312 212.917969 112.078125 213.738281 112.417969 C 214.554688 112.757812 215.332031 113.171875 216.070312 113.664062 C 216.808594 114.15625 217.488281 114.71875 218.117188 115.34375 C 218.742188 115.96875 219.304688 116.652344 219.796875 117.390625 C 220.289062 118.125 220.703125 118.90625 221.042969 119.722656 C 221.382812 120.542969 221.636719 121.386719 221.8125 122.257812 C 221.984375 123.125 222.070312 124.003906 222.070312 124.890625 Z M 222.070312 124.890625 " fill-opacity="1" fill-rule="nonzero"/></g><g clip-path="url(#f6d2500e6d)"><path fill="#ffca28" d="M 221.289062 124.890625 C 221.289062 125.726562 221.207031 126.550781 221.042969 127.371094 C 220.878906 128.191406 220.640625 128.984375 220.320312 129.757812 C 220 130.527344 219.609375 131.261719 219.144531 131.957031 C 218.679688 132.648438 218.152344 133.292969 217.5625 133.882812 C 216.972656 134.472656 216.332031 135 215.636719 135.464844 C 214.941406 135.925781 214.207031 136.320312 213.4375 136.640625 C 212.664062 136.957031 211.871094 137.199219 211.050781 137.363281 C 210.234375 137.527344 209.40625 137.605469 208.570312 137.605469 C 207.734375 137.605469 206.910156 137.527344 206.089844 137.363281 C 205.269531 137.199219 204.476562 136.957031 203.703125 136.640625 C 202.933594 136.320312 202.199219 135.925781 201.503906 135.464844 C 200.8125 135 200.167969 134.472656 199.578125 133.882812 C 198.988281 133.292969 198.460938 132.648438 197.996094 131.957031 C 197.53125 131.261719 197.140625 130.527344 196.820312 129.757812 C 196.5 128.984375 196.261719 128.191406 196.097656 127.371094 C 195.933594 126.550781 195.851562 125.726562 195.851562 124.890625 C 195.851562 124.054688 195.933594 123.226562 196.097656 122.410156 C 196.261719 121.589844 196.5 120.792969 196.820312 120.023438 C 197.140625 119.25 197.53125 118.519531 197.996094 117.824219 C 198.460938 117.128906 198.988281 116.488281 199.578125 115.898438 C 200.167969 115.308594 200.8125 114.78125 201.503906 114.316406 C 202.199219 113.851562 202.933594 113.460938 203.703125 113.140625 C 204.476562 112.820312 205.269531 112.578125 206.089844 112.417969 C 206.910156 112.253906 207.734375 112.171875 208.570312 112.171875 C 209.40625 112.171875 210.234375 112.253906 211.050781 112.417969 C 211.871094 112.578125 212.664062 112.820312 213.4375 113.140625 C 214.207031 113.460938 214.941406 113.851562 215.636719 114.316406 C 216.332031 114.78125 216.972656 115.308594 217.5625 115.898438 C 218.152344 116.488281 218.679688 117.128906 219.144531 117.824219 C 219.609375 118.519531 220 119.25 220.320312 120.023438 C 220.640625 120.792969 220.878906 121.589844 221.042969 122.410156 C 221.207031 123.226562 221.289062 124.054688 221.289062 124.890625 Z M 221.289062 124.890625 " fill-opacity="1" fill-rule="nonzero"/></g><path fill="#ffa000" d="M 219.332031 124.890625 C 219.332031 125.597656 219.261719 126.296875 219.125 126.988281 C 218.988281 127.683594 218.78125 128.355469 218.511719 129.007812 C 218.242188 129.660156 217.910156 130.28125 217.519531 130.867188 C 217.125 131.457031 216.679688 132 216.179688 132.5 C 215.679688 133 215.136719 133.445312 214.550781 133.835938 C 213.960938 134.230469 213.339844 134.5625 212.6875 134.832031 C 212.035156 135.101562 211.363281 135.304688 210.667969 135.445312 C 209.976562 135.582031 209.277344 135.652344 208.570312 135.652344 C 207.863281 135.652344 207.164062 135.582031 206.472656 135.445312 C 205.777344 135.304688 205.105469 135.101562 204.453125 134.832031 C 203.800781 134.5625 203.179688 134.230469 202.59375 133.835938 C 202.003906 133.445312 201.460938 133 200.960938 132.5 C 200.460938 132 200.015625 131.457031 199.625 130.867188 C 199.230469 130.28125 198.898438 129.660156 198.628906 129.007812 C 198.359375 128.355469 198.152344 127.683594 198.015625 126.988281 C 197.878906 126.296875 197.808594 125.597656 197.808594 124.890625 C 197.808594 124.183594 197.878906 123.484375 198.015625 122.789062 C 198.152344 122.097656 198.359375 121.425781 198.628906 120.773438 C 198.898438 120.117188 199.230469 119.5 199.625 118.910156 C 200.015625 118.324219 200.460938 117.78125 200.960938 117.28125 C 201.460938 116.78125 202.003906 116.335938 202.59375 115.941406 C 203.179688 115.550781 203.800781 115.21875 204.453125 114.949219 C 205.105469 114.675781 205.777344 114.472656 206.472656 114.335938 C 207.164062 114.199219 207.863281 114.128906 208.570312 114.128906 C 209.277344 114.128906 209.976562 114.199219 210.667969 114.335938 C 211.363281 114.472656 212.035156 114.675781 212.6875 114.949219 C 213.339844 115.21875 213.960938 115.550781 214.550781 115.941406 C 215.136719 116.335938 215.679688 116.78125 216.179688 117.28125 C 216.679688 117.78125 217.125 118.324219 217.519531 118.910156 C 217.910156 119.5 218.242188 120.117188 218.511719 120.773438 C 218.78125 121.425781 218.988281 122.097656 219.125 122.789062 C 219.261719 123.484375 219.332031 124.183594 219.332031 124.890625 Z M 219.332031 124.890625 " fill-opacity="1" fill-rule="nonzero"/><g fill="#0d0e32" fill-opacity="1"><g transform="translate(116.759411, 187.258404)"><g><path d="M 37.5 -4.359375 C 36.789062 -4.273438 35.945312 -4.328125 34.96875 -4.515625 C 33.988281 -4.703125 33.019531 -5.671875 32.0625 -7.421875 C 31.738281 -8.003906 31.425781 -8.753906 31.125 -9.671875 C 30.65625 -11.265625 30.195312 -13.695312 29.75 -16.96875 C 24.863281 -16.726562 21.015625 -16.4375 18.203125 -16.09375 L 14.703125 -15.609375 C 11.796875 -9.742188 10.726562 -5.582031 11.5 -3.125 C 11.644531 -2.625 11.679688 -2.4375 11.609375 -2.5625 C 9.953125 -1.613281 8.164062 -1.019531 6.25 -0.78125 C 5.257812 -0.65625 3.894531 -0.722656 2.15625 -0.984375 C 0.425781 -1.242188 -0.914062 -2.835938 -1.875 -5.765625 C -2.3125 -7.210938 -1.113281 -10.597656 1.71875 -15.921875 C -0.550781 -17.066406 -1.859375 -18.195312 -2.203125 -19.3125 C -2.234375 -19.445312 -2.3125 -19.925781 -2.4375 -20.75 C -2.570312 -21.582031 -2.457031 -22.347656 -2.09375 -23.046875 C -1.332031 -22.710938 0.988281 -22.203125 4.875 -21.515625 C 6.757812 -24.578125 8.566406 -27.539062 10.296875 -30.40625 C 12.765625 -34.238281 15.054688 -37.96875 17.171875 -41.59375 C 19.285156 -45.226562 20.9375 -48.492188 22.125 -51.390625 C 23.320312 -54.296875 23.785156 -56.242188 23.515625 -57.234375 C 23.984375 -57.296875 25.09375 -57.300781 26.84375 -57.25 C 28.59375 -57.195312 30.210938 -56.957031 31.703125 -56.53125 C 33.191406 -56.101562 34.191406 -55.492188 34.703125 -54.703125 C 35.066406 -54.023438 35.421875 -53.125 35.765625 -52 C 36.648438 -49.125 37.710938 -43.578125 38.953125 -35.359375 C 39.816406 -29.597656 40.800781 -24.113281 41.90625 -18.90625 C 42.28125 -17.082031 42.691406 -15.421875 43.140625 -13.921875 C 44.015625 -11.054688 44.851562 -9.046875 45.65625 -7.890625 C 43.96875 -6.890625 42.15625 -5.976562 40.21875 -5.15625 C 39.25 -4.726562 38.34375 -4.460938 37.5 -4.359375 Z M 29.421875 -20.265625 C 29.171875 -23.742188 28.9375 -27.070312 28.71875 -30.25 L 28.171875 -38.765625 L 23.0625 -30.3125 C 21.300781 -27.414062 19.332031 -24.082031 17.15625 -20.3125 C 21.320312 -20.21875 25.410156 -20.203125 29.421875 -20.265625 Z M 29.421875 -20.265625 "/></g></g></g><g fill="#0d0e32" fill-opacity="1"><g transform="translate(165.276567, 181.178572)"><g><path d="M 33.296875 -3.65625 C 33.203125 -3.632812 32.472656 -3.554688 31.109375 -3.421875 C 29.753906 -3.296875 27.40625 -4.332031 24.0625 -6.53125 C 22.75 -7.414062 21.160156 -8.710938 19.296875 -10.421875 C 17.109375 -7.085938 14.410156 -4.53125 11.203125 -2.75 C 10.117188 -2.226562 8.890625 -1.878906 7.515625 -1.703125 C 6.285156 -1.546875 4.523438 -1.5625 2.234375 -1.75 C -0.0546875 -1.9375 -1.816406 -2.453125 -3.046875 -3.296875 C -0.398438 -5.609375 2.035156 -8.296875 4.265625 -11.359375 C 6.492188 -14.429688 8.457031 -17.632812 10.15625 -20.96875 C 7.582031 -24.125 5.035156 -27.144531 2.515625 -30.03125 C 0.00390625 -32.914062 -2.46875 -35.445312 -4.90625 -37.625 C -4.71875 -37.875 -4.019531 -38.078125 -2.8125 -38.234375 C -2.164062 -38.304688 -1 -38.269531 0.6875 -38.125 C 2.382812 -37.988281 4.253906 -37.210938 6.296875 -35.796875 C 8.484375 -34.015625 11.03125 -31.6875 13.9375 -28.8125 C 15.40625 -31.914062 16.691406 -34.320312 17.796875 -36.03125 C 18.910156 -37.75 20.144531 -39.007812 21.5 -39.8125 C 22.207031 -40.144531 22.992188 -40.363281 23.859375 -40.46875 C 24.585938 -40.5625 25.644531 -40.523438 27.03125 -40.359375 C 28.414062 -40.203125 29.925781 -39.734375 31.5625 -38.953125 C 33.195312 -38.179688 34.164062 -37.617188 34.46875 -37.265625 C 32.09375 -34.835938 30.082031 -32.101562 28.4375 -29.0625 C 26.707031 -25.9375 25.039062 -22.46875 23.4375 -18.65625 C 26.039062 -15.863281 28.566406 -13.375 31.015625 -11.1875 C 33.460938 -9 35.726562 -7.257812 37.8125 -5.96875 C 37.226562 -4.726562 35.722656 -3.957031 33.296875 -3.65625 Z M 33.296875 -3.65625 "/></g></g></g><g fill="#0d0e32" fill-opacity="1"><g transform="translate(200.791291, 176.728114)"><g><path d="M 8.015625 -1.03125 C 7.023438 -0.90625 5.648438 -0.972656 3.890625 -1.234375 C 2.128906 -1.492188 0.769531 -3.070312 -0.1875 -5.96875 C -0.6875 -7.769531 -0.835938 -10.03125 -0.640625 -12.75 C -0.441406 -15.476562 -0.144531 -18.390625 0.25 -21.484375 C 0.707031 -24.859375 1.023438 -28.113281 1.203125 -31.25 C 1.390625 -34.394531 1.25 -36.78125 0.78125 -38.40625 C 3.175781 -38.582031 5.484375 -38.429688 7.703125 -37.953125 C 9.929688 -37.484375 11.332031 -36.785156 11.90625 -35.859375 C 12.09375 -35.503906 12.253906 -35.101562 12.390625 -34.65625 C 12.804688 -33.351562 12.972656 -31.613281 12.890625 -29.4375 C 12.804688 -27.269531 12.578125 -24.707031 12.203125 -21.75 C 11.128906 -14.28125 11.109375 -8.898438 12.140625 -5.609375 C 12.523438 -4.285156 12.910156 -3.34375 13.296875 -2.78125 C 11.703125 -1.851562 9.941406 -1.269531 8.015625 -1.03125 Z M 7.90625 -44 C 6.769531 -43.851562 5.5625 -44.007812 4.28125 -44.46875 C 2.207031 -45.3125 0.914062 -46.550781 0.40625 -48.1875 C 0.0390625 -49.457031 0.179688 -50.90625 0.828125 -52.53125 C 1.691406 -54.332031 2.90625 -55.5625 4.46875 -56.21875 C 4.96875 -56.394531 5.503906 -56.519531 6.078125 -56.59375 C 7.210938 -56.738281 8.421875 -56.578125 9.703125 -56.109375 C 11.742188 -55.335938 13.003906 -54.144531 13.484375 -52.53125 C 13.878906 -51.226562 13.738281 -49.757812 13.0625 -48.125 C 12.226562 -46.3125 11.023438 -45.070312 9.453125 -44.40625 C 8.960938 -44.207031 8.445312 -44.070312 7.90625 -44 Z M 7.90625 -44 "/></g></g></g><g fill="#0d0e32" fill-opacity="1"><g transform="translate(215.177057, 174.92539)"><g><path d="M 16.625 -8.265625 C 18.3125 -8.609375 19.75 -9.53125 20.9375 -11.03125 C 22.132812 -12.53125 23.070312 -14.203125 23.75 -16.046875 C 24.4375 -17.890625 24.890625 -19.550781 25.109375 -21.03125 C 25.328125 -22.519531 25.394531 -24.050781 25.3125 -25.625 C 25.238281 -27.207031 25 -28.675781 24.59375 -30.03125 C 24.125 -31.4375 23.453125 -32.613281 22.578125 -33.5625 C 21.710938 -34.507812 20.578125 -34.894531 19.171875 -34.71875 C 17.441406 -34.375 15.976562 -33.476562 14.78125 -32.03125 C 13.59375 -30.59375 12.632812 -28.960938 11.90625 -27.140625 C 11.175781 -25.316406 10.703125 -23.664062 10.484375 -22.1875 C 10.273438 -20.707031 10.21875 -19.191406 10.3125 -17.640625 C 10.40625 -16.085938 10.65625 -14.65625 11.0625 -13.34375 L 11.421875 -12.203125 C 11.671875 -11.347656 12.242188 -10.429688 13.140625 -9.453125 C 14.035156 -8.484375 15.195312 -8.085938 16.625 -8.265625 Z M 15.84375 -2.25 L 15.03125 -2.15625 C 12.226562 -1.800781 9.660156 -2.203125 7.328125 -3.359375 C 4.992188 -4.515625 3.09375 -6.367188 1.625 -8.921875 C 0.976562 -10.015625 0.453125 -11.195312 0.046875 -12.46875 C -0.460938 -14.15625 -0.757812 -15.992188 -0.84375 -17.984375 C -0.925781 -21.535156 -0.160156 -24.929688 1.453125 -28.171875 C 3.078125 -31.421875 5.453125 -34.1875 8.578125 -36.46875 C 11.703125 -38.75 15.570312 -40.179688 20.1875 -40.765625 C 24.582031 -41.316406 28.3125 -40.175781 31.375 -37.34375 C 33.382812 -35.488281 34.816406 -33.160156 35.671875 -30.359375 C 37.015625 -26.023438 36.90625 -21.695312 35.34375 -17.375 C 34.4375 -14.832031 33.085938 -12.5 31.296875 -10.375 C 29.515625 -8.25 27.320312 -6.46875 24.71875 -5.03125 C 22.113281 -3.59375 19.15625 -2.664062 15.84375 -2.25 Z M 15.84375 -2.25 "/></g></g></g><g fill="#0d0e32" fill-opacity="1"><g transform="translate(131.792109, 254.158397)"><g><path d="M 22.125 -2.0625 C 18.03125 -1.539062 13.445312 -1.226562 8.375 -1.125 C 6.664062 -1.0625 5.191406 -1.429688 3.953125 -2.234375 C 2.710938 -3.046875 1.816406 -4.34375 1.265625 -6.125 C 0.847656 -7.644531 0.75 -9.863281 0.96875 -12.78125 C 1.195312 -15.695312 1.546875 -19.066406 2.015625 -22.890625 C 2.742188 -28.347656 3.253906 -34.066406 3.546875 -40.046875 C 3.847656 -46.023438 3.445312 -51.195312 2.34375 -55.5625 C 3.75 -55.6875 5.40625 -55.640625 7.3125 -55.421875 C 9.226562 -55.210938 10.773438 -54.867188 11.953125 -54.390625 C 13.140625 -53.921875 13.816406 -53.453125 13.984375 -52.984375 C 15.015625 -49.398438 15.4375 -45.257812 15.25 -40.5625 C 15.070312 -35.875 14.6875 -31.109375 14.09375 -26.265625 C 13.757812 -23.171875 13.488281 -20.195312 13.28125 -17.34375 C 13.070312 -14.488281 13.082031 -11.453125 13.3125 -8.234375 C 16.28125 -9.253906 18.847656 -10.28125 21.015625 -11.3125 C 23.191406 -12.351562 25.195312 -13.34375 27.03125 -14.28125 C 30.050781 -15.90625 31.859375 -16.753906 32.453125 -16.828125 C 32.347656 -16.816406 32.203125 -16.914062 32.015625 -17.125 C 32.484375 -16.34375 32.847656 -15.507812 33.109375 -14.625 C 33.441406 -13.613281 33.617188 -12.3125 33.640625 -10.71875 C 33.660156 -9.132812 33.1875 -7.554688 32.21875 -5.984375 C 31.257812 -4.421875 29.789062 -3.414062 27.8125 -2.96875 C 26.03125 -2.613281 24.132812 -2.3125 22.125 -2.0625 Z M 22.125 -2.0625 "/></g></g></g><g fill="#0d0e32" fill-opacity="1"><g transform="translate(170.188051, 249.346885)"><g><path d="M 35.09375 -4.390625 C 34.113281 -4.273438 32.753906 -4.34375 31.015625 -4.59375 C 29.285156 -4.851562 27.9375 -6.445312 26.96875 -9.375 C 26.675781 -10.34375 26.441406 -12.914062 26.265625 -17.09375 C 23.898438 -11.425781 21.859375 -7.570312 20.140625 -5.53125 C 18.273438 -3.414062 16.113281 -2.207031 13.65625 -1.90625 C 11.019531 -1.570312 8.632812 -2.007812 6.5 -3.21875 C 4.375 -4.425781 2.679688 -6.300781 1.421875 -8.84375 C 0.910156 -9.800781 0.5 -10.8125 0.1875 -11.875 C -0.382812 -13.726562 -0.722656 -15.765625 -0.828125 -17.984375 C -0.898438 -21.523438 -0.234375 -24.90625 1.171875 -28.125 C 2.585938 -31.34375 4.613281 -34.066406 7.25 -36.296875 C 9.882812 -38.523438 13 -39.863281 16.59375 -40.3125 C 18.71875 -40.570312 20.585938 -40.457031 22.203125 -39.96875 C 23.828125 -39.488281 25.816406 -37.789062 28.171875 -34.875 C 28.171875 -38.632812 28.070312 -40.941406 27.875 -41.796875 C 30.289062 -41.972656 32.613281 -41.828125 34.84375 -41.359375 C 37.070312 -40.890625 38.453125 -40.191406 38.984375 -39.265625 C 39.171875 -38.898438 39.332031 -38.492188 39.46875 -38.046875 C 39.882812 -36.722656 40.054688 -34.976562 39.984375 -32.8125 C 39.921875 -30.65625 39.691406 -28.085938 39.296875 -25.109375 C 38.785156 -21.421875 38.53125 -17.863281 38.53125 -14.4375 C 38.519531 -12.488281 38.753906 -10.703125 39.234375 -9.078125 C 39.660156 -7.710938 40.070312 -6.75 40.46875 -6.1875 C 38.8125 -5.238281 37.019531 -4.640625 35.09375 -4.390625 Z M 17.34375 -11.078125 C 18.800781 -11.253906 20.148438 -12.242188 21.390625 -14.046875 C 22.628906 -15.847656 23.726562 -18.035156 24.6875 -20.609375 C 25.65625 -23.191406 26.4375 -25.90625 27.03125 -28.75 C 27.164062 -29.84375 27.117188 -30.789062 26.890625 -31.59375 C 26.660156 -32.425781 26.039062 -33.242188 25.03125 -34.046875 C 24.03125 -34.859375 22.335938 -35.113281 19.953125 -34.8125 C 17.804688 -34.457031 16.035156 -33.519531 14.640625 -32 C 13.253906 -30.476562 12.222656 -28.726562 11.546875 -26.75 C 10.398438 -23.175781 10.316406 -19.734375 11.296875 -16.421875 C 11.296875 -16.347656 11.429688 -15.898438 11.703125 -15.078125 C 11.972656 -14.265625 12.617188 -13.347656 13.640625 -12.328125 C 14.660156 -11.304688 15.894531 -10.890625 17.34375 -11.078125 Z M 17.34375 -11.078125 "/></g></g></g><g fill="#0d0e32" fill-opacity="1"><g transform="translate(214.937454, 243.739201)"><g><path d="M 18.515625 -8.515625 C 20.203125 -8.847656 21.65625 -9.722656 22.875 -11.140625 C 24.101562 -12.554688 25.0625 -14.15625 25.75 -15.9375 C 26.4375 -17.726562 26.898438 -19.359375 27.140625 -20.828125 C 27.378906 -22.296875 27.5 -23.828125 27.5 -25.421875 C 27.488281 -27.609375 27.257812 -29.46875 26.8125 -31 C 26.476562 -32.050781 25.957031 -33.035156 25.25 -33.953125 C 24.550781 -34.878906 23.460938 -35.25 21.984375 -35.0625 C 19.410156 -34.488281 17.175781 -32.414062 15.28125 -28.84375 C 13.382812 -25.28125 12.429688 -21.445312 12.421875 -17.34375 C 12.554688 -15.65625 12.8125 -14.210938 13.1875 -13.015625 C 13.300781 -12.691406 13.484375 -12.175781 13.734375 -11.46875 C 13.984375 -10.757812 14.515625 -10.046875 15.328125 -9.328125 C 16.148438 -8.617188 17.210938 -8.347656 18.515625 -8.515625 Z M 17.734375 -2.484375 L 16.15625 -2.296875 C 11.988281 -1.921875 8.601562 -2.742188 6 -4.765625 C 3.570312 -6.628906 1.804688 -9.382812 0.703125 -13.03125 L 0.421875 -14 C -0.0546875 -15.820312 -0.21875 -18.4375 -0.0625 -21.84375 C 0.09375 -25.257812 0.363281 -28.984375 0.75 -33.015625 C 1.175781 -37.390625 1.46875 -41.554688 1.625 -45.515625 C 1.78125 -49.484375 1.597656 -52.289062 1.078125 -53.9375 C 3.515625 -54.125 5.894531 -53.914062 8.21875 -53.3125 C 10.539062 -52.71875 11.972656 -51.957031 12.515625 -51.03125 C 12.679688 -50.726562 12.835938 -50.378906 12.984375 -49.984375 C 13.628906 -47.835938 13.59375 -42.785156 12.875 -34.828125 C 15.300781 -37.285156 17.351562 -38.914062 19.03125 -39.71875 C 20.707031 -40.53125 22.773438 -41.085938 25.234375 -41.390625 C 27.847656 -41.722656 30.191406 -41.257812 32.265625 -40 C 34.335938 -38.75 36.003906 -36.828125 37.265625 -34.234375 C 37.691406 -33.335938 38.050781 -32.394531 38.34375 -31.40625 C 38.96875 -29.476562 39.3125 -27.347656 39.375 -25.015625 C 39.457031 -21.515625 38.617188 -18.160156 36.859375 -14.953125 C 35.097656 -11.742188 32.578125 -9.003906 29.296875 -6.734375 C 26.023438 -4.460938 22.171875 -3.046875 17.734375 -2.484375 Z M 17.734375 -2.484375 "/></g></g></g></svg>