<svg width="107" height="46" viewBox="0 0 107 46" fill="none" xmlns="http://www.w3.org/2000/svg">
<mask id="path-1-inside-1_333_2181" fill="white">
<path d="M75 23C75 28.9674 72.6295 34.6903 68.4099 38.9099C64.1903 43.1295 58.4674 45.5 52.5 45.5C46.5326 45.5 40.8097 43.1295 36.5901 38.9099C32.3705 34.6903 30 28.9674 30 23H30.4734C30.4734 28.8418 32.794 34.4444 36.9248 38.5752C41.0556 42.706 46.6582 45.0266 52.5 45.0266C58.3418 45.0266 63.9444 42.706 68.0752 38.5752C72.206 34.4444 74.5266 28.8418 74.5266 23H75Z"/>
</mask>
<path d="M75 23C75 28.9674 72.6295 34.6903 68.4099 38.9099C64.1903 43.1295 58.4674 45.5 52.5 45.5C46.5326 45.5 40.8097 43.1295 36.5901 38.9099C32.3705 34.6903 30 28.9674 30 23H30.4734C30.4734 28.8418 32.794 34.4444 36.9248 38.5752C41.0556 42.706 46.6582 45.0266 52.5 45.0266C58.3418 45.0266 63.9444 42.706 68.0752 38.5752C72.206 34.4444 74.5266 28.8418 74.5266 23H75Z" fill="#DFDFF7" stroke="#DFDFF7" stroke-width="0.9" mask="url(#path-1-inside-1_333_2181)"/>
<path d="M106.177 22.3232C106.274 22.4209 106.274 22.5791 106.177 22.6768L104.586 24.2678C104.488 24.3654 104.33 24.3654 104.232 24.2678C104.135 24.1701 104.135 24.0118 104.232 23.9142L105.646 22.5L104.232 21.0858C104.135 20.9882 104.135 20.8299 104.232 20.7322C104.33 20.6346 104.488 20.6346 104.586 20.7322L106.177 22.3232ZM0 22.25H106V22.75H0V22.25Z" fill="#DFDFF7"/>
</svg>
