<svg width="107" height="46" viewBox="0 0 107 46" fill="none" xmlns="http://www.w3.org/2000/svg">
<mask id="path-1-inside-1_333_2175" fill="white">
<path d="M75 23C75 17.0326 72.6295 11.3097 68.4099 7.0901C64.1903 2.87053 58.4674 0.5 52.5 0.5C46.5326 0.5 40.8097 2.87053 36.5901 7.0901C32.3705 11.3097 30 17.0326 30 23H30.4734C30.4734 17.1582 32.794 11.5556 36.9248 7.42483C41.0556 3.29405 46.6582 0.973392 52.5 0.973392C58.3418 0.973393 63.9444 3.29405 68.0752 7.42484C72.206 11.5556 74.5266 17.1582 74.5266 23H75Z"/>
</mask>
<path d="M75 23C75 17.0326 72.6295 11.3097 68.4099 7.0901C64.1903 2.87053 58.4674 0.5 52.5 0.5C46.5326 0.5 40.8097 2.87053 36.5901 7.0901C32.3705 11.3097 30 17.0326 30 23H30.4734C30.4734 17.1582 32.794 11.5556 36.9248 7.42483C41.0556 3.29405 46.6582 0.973392 52.5 0.973392C58.3418 0.973393 63.9444 3.29405 68.0752 7.42484C72.206 11.5556 74.5266 17.1582 74.5266 23H75Z" fill="#DFDFF7" stroke="#DFDFF7" stroke-width="0.9" mask="url(#path-1-inside-1_333_2175)"/>
<path d="M106.177 23.6768C106.274 23.5791 106.274 23.4209 106.177 23.3232L104.586 21.7322C104.488 21.6346 104.33 21.6346 104.232 21.7322C104.135 21.8299 104.135 21.9882 104.232 22.0858L105.646 23.5L104.232 24.9142C104.135 25.0118 104.135 25.1701 104.232 25.2678C104.33 25.3654 104.488 25.3654 104.586 25.2678L106.177 23.6768ZM0 23.75H106V23.25H0V23.75Z" fill="#DFDFF7"/>
</svg>
