<svg width="24" height="24" viewBox="0 0 24 24" fill="none" xmlns="http://www.w3.org/2000/svg">
<path d="M11.9996 7.49956C11.1095 7.49956 10.2395 7.76348 9.49949 8.25794C8.75947 8.75241 8.18269 9.45521 7.8421 10.2775C7.5015 11.0997 7.41239 12.0045 7.58602 12.8775C7.75965 13.7504 8.18824 14.5522 8.81757 15.1815C9.44691 15.8109 10.2487 16.2395 11.1216 16.4131C11.9946 16.5867 12.8994 16.4976 13.7216 16.157C14.5439 15.8164 15.2467 15.2396 15.7412 14.4996C16.2356 13.7596 16.4996 12.8896 16.4996 11.9996C16.4983 10.8065 16.0238 9.66259 15.1802 8.81895C14.3365 7.9753 13.1926 7.5008 11.9996 7.49956ZM11.9996 14.9996C11.4062 14.9996 10.8262 14.8236 10.3328 14.494C9.8395 14.1643 9.45498 13.6958 9.22792 13.1476C9.00085 12.5994 8.94144 11.9962 9.0572 11.4143C9.17295 10.8323 9.45868 10.2978 9.87823 9.87823C10.2978 9.45868 10.8323 9.17295 11.4143 9.0572C11.9962 8.94144 12.5994 9.00085 13.1476 9.22792C13.6958 9.45498 14.1643 9.8395 14.494 10.3328C14.8236 10.8262 14.9996 11.4062 14.9996 11.9996C14.9996 12.7952 14.6835 13.5583 14.1209 14.1209C13.5583 14.6835 12.7952 14.9996 11.9996 14.9996ZM20.2496 12.2021C20.2533 12.0671 20.2533 11.9321 20.2496 11.7971L21.6483 10.0496C21.7216 9.9578 21.7724 9.85011 21.7965 9.73514C21.8206 9.62018 21.8174 9.50116 21.7871 9.38768C21.5578 8.52574 21.2147 7.69816 20.7671 6.92674C20.7084 6.82579 20.6271 6.73992 20.5294 6.67595C20.4318 6.61199 20.3205 6.5717 20.2046 6.5583L17.9808 6.3108C17.8883 6.2133 17.7946 6.11955 17.6996 6.02955L17.4371 3.80018C17.4236 3.68413 17.3831 3.57284 17.319 3.47518C17.2549 3.37752 17.1688 3.29619 17.0677 3.23768C16.296 2.79082 15.4685 2.44815 14.6067 2.21862C14.4932 2.18843 14.3741 2.18534 14.2592 2.2096C14.1442 2.23387 14.0365 2.2848 13.9449 2.3583L12.2021 3.74955C12.0671 3.74955 11.9321 3.74955 11.7971 3.74955L10.0496 2.35362C9.9578 2.28027 9.85011 2.22951 9.73514 2.20541C9.62018 2.18131 9.50116 2.18455 9.38768 2.21487C8.52588 2.44458 7.69836 2.78757 6.92674 3.23487C6.82579 3.29349 6.73992 3.37486 6.67595 3.47251C6.61199 3.57017 6.5717 3.6814 6.5583 3.79737L6.3108 6.02487C6.2133 6.11799 6.11955 6.21174 6.02955 6.30612L3.80018 6.56206C3.68413 6.57556 3.57284 6.61598 3.47518 6.68011C3.37752 6.74424 3.29619 6.8303 3.23768 6.93143C2.79082 7.70315 2.44815 8.53066 2.21862 9.39237C2.18843 9.50592 2.18534 9.62498 2.2096 9.73995C2.23387 9.85491 2.2848 9.96257 2.3583 10.0542L3.74955 11.7971C3.74955 11.9321 3.74955 12.0671 3.74955 12.2021L2.35362 13.9496C2.28027 14.0413 2.22951 14.149 2.20541 14.264C2.18131 14.3789 2.18455 14.4979 2.21487 14.6114C2.44417 15.4734 2.78718 16.3009 3.23487 17.0724C3.29349 17.1733 3.37486 17.2592 3.47251 17.3232C3.57017 17.3871 3.6814 17.4274 3.79737 17.4408L6.02112 17.6883C6.11424 17.7858 6.20799 17.8796 6.30237 17.9696L6.56206 20.1989C6.57556 20.315 6.61598 20.4263 6.68011 20.5239C6.74424 20.6216 6.8303 20.7029 6.93143 20.7614C7.70315 21.2083 8.53066 21.551 9.39237 21.7805C9.50592 21.8107 9.62498 21.8138 9.73995 21.7895C9.85491 21.7652 9.96257 21.7143 10.0542 21.6408L11.7971 20.2496C11.9321 20.2533 12.0671 20.2533 12.2021 20.2496L13.9496 21.6483C14.0413 21.7216 14.149 21.7724 14.264 21.7965C14.3789 21.8206 14.4979 21.8174 14.6114 21.7871C15.4734 21.5578 16.3009 21.2147 17.0724 20.7671C17.1733 20.7084 17.2592 20.6271 17.3232 20.5294C17.3871 20.4318 17.4274 20.3205 17.4408 20.2046L17.6883 17.9808C17.7858 17.8883 17.8796 17.7946 17.9696 17.6996L20.1989 17.4371C20.315 17.4236 20.4263 17.3831 20.5239 17.319C20.6216 17.2549 20.7029 17.1688 20.7614 17.0677C21.2083 16.296 21.551 15.4685 21.7805 14.6067C21.8107 14.4932 21.8138 14.3741 21.7895 14.2592C21.7652 14.1442 21.7143 14.0365 21.6408 13.9449L20.2496 12.2021ZM18.7402 11.5927C18.7561 11.8637 18.7561 12.1354 18.7402 12.4064C18.729 12.592 18.7871 12.7751 18.9033 12.9202L20.2336 14.5824C20.081 15.0675 19.8855 15.5381 19.6496 15.9886L17.5308 16.2286C17.3463 16.2491 17.1759 16.3373 17.0527 16.4761C16.8722 16.6791 16.68 16.8713 16.4771 17.0517C16.3382 17.175 16.25 17.3454 16.2296 17.5299L15.9942 19.6467C15.5438 19.8828 15.0732 20.0783 14.588 20.2308L12.9249 18.9005C12.7918 18.7942 12.6265 18.7363 12.4561 18.7364H12.4111C12.1401 18.7524 11.8684 18.7524 11.5974 18.7364C11.4118 18.7253 11.2287 18.7834 11.0836 18.8996L9.41674 20.2308C8.93162 20.0782 8.46102 19.8827 8.01049 19.6467L7.77049 17.5308C7.75001 17.3463 7.66182 17.1759 7.52299 17.0527C7.32003 16.8722 7.12783 16.68 6.94737 16.4771C6.82412 16.3382 6.65376 16.25 6.46924 16.2296L4.35237 15.9933C4.1163 15.5428 3.92084 15.0722 3.7683 14.5871L5.09862 12.9239C5.21478 12.7788 5.27291 12.5957 5.26174 12.4102C5.24581 12.1392 5.24581 11.8674 5.26174 11.5964C5.27291 11.4109 5.21478 11.2278 5.09862 11.0827L3.7683 9.41674C3.92095 8.93162 4.11641 8.46102 4.35237 8.01049L6.46831 7.77049C6.65282 7.75001 6.82318 7.66182 6.94643 7.52299C7.12689 7.32003 7.31909 7.12783 7.52205 6.94737C7.66144 6.82404 7.74999 6.65329 7.77049 6.46831L8.00581 4.35237C8.45628 4.1163 8.92689 3.92084 9.41206 3.7683L11.0752 5.09862C11.2203 5.21478 11.4034 5.27291 11.5889 5.26174C11.8599 5.24581 12.1317 5.24581 12.4027 5.26174C12.5882 5.27291 12.7713 5.21478 12.9164 5.09862L14.5824 3.7683C15.0675 3.92095 15.5381 4.11641 15.9886 4.35237L16.2286 6.46831C16.2491 6.65282 16.3373 6.82318 16.4761 6.94643C16.6791 7.12689 16.8713 7.31909 17.0517 7.52205C17.175 7.66089 17.3454 7.74907 17.5299 7.76955L19.6467 8.00487C19.8828 8.45534 20.0783 8.92595 20.2308 9.41112L18.9005 11.0742C18.7832 11.2206 18.725 11.4056 18.7374 11.5927H18.7402Z" fill="#00ADEF"/>
</svg>
