<svg width="24" height="24" viewBox="0 0 24 24" fill="none" xmlns="http://www.w3.org/2000/svg">
<path d="M11.227 20.4316C11.1865 20.5939 11.0928 20.7379 10.961 20.8408C10.8292 20.9438 10.6668 20.9997 10.4995 20.9997C10.4363 21 10.3734 20.9925 10.312 20.9772L7.31202 20.2272C7.2285 20.2063 7.14922 20.1711 7.07765 20.1232L4.82765 18.6232C4.66218 18.5128 4.54734 18.3412 4.5084 18.1461C4.46945 17.951 4.5096 17.7485 4.61999 17.583C4.73039 17.4175 4.902 17.3027 5.09706 17.2638C5.29213 17.2248 5.49468 17.265 5.66015 17.3754L7.8014 18.8032L10.6758 19.5222C10.7718 19.5455 10.8623 19.5876 10.942 19.6459C11.0218 19.7043 11.0892 19.7778 11.1404 19.8623C11.1917 19.9468 11.2257 20.0406 11.2405 20.1383C11.2554 20.236 11.2508 20.3357 11.227 20.4316ZM23.6667 11.3885C23.6052 11.5754 23.5072 11.7483 23.3785 11.8971C23.2498 12.046 23.0928 12.1678 22.9167 12.2557L20.6967 13.3657L15.533 18.5304C15.4413 18.6219 15.3275 18.6882 15.2027 18.7227C15.0778 18.7572 14.9461 18.7587 14.8205 18.7272L8.82046 17.2272C8.72922 17.2043 8.64305 17.1646 8.5664 17.11L3.3614 13.3938L1.08515 12.2557C0.729402 12.0778 0.458845 11.766 0.332968 11.3887C0.207092 11.0114 0.236203 10.5996 0.4139 10.2438L2.74359 5.58536C2.92142 5.22961 3.23327 4.95906 3.61054 4.83318C3.98782 4.7073 4.39964 4.73642 4.75546 4.91411L6.82359 5.94536L11.7923 4.52599C11.9271 4.48743 12.07 4.48743 12.2048 4.52599L17.1736 5.94536L19.2417 4.91411C19.5975 4.73642 20.0094 4.7073 20.3866 4.83318C20.7639 4.95906 21.0758 5.22961 21.2536 5.58536L23.5833 10.2438C23.6721 10.4196 23.7253 10.6113 23.7396 10.8078C23.7539 11.0043 23.7291 11.2016 23.6667 11.3885ZM19.3373 12.6016L16.7864 7.49974H13.8033L9.74953 11.4372C10.9364 12.1957 12.7973 12.4047 14.467 10.7219C14.5974 10.5905 14.7718 10.5119 14.9567 10.5014C15.1415 10.4908 15.3238 10.549 15.4683 10.6647L18.6942 13.2494L19.3373 12.6016ZM1.75546 10.9141L3.4139 11.7438L5.74359 7.08536L4.08515 6.25567L1.75546 10.9141ZM17.6245 14.3116L15.0267 12.2313C13.1948 13.7313 10.8689 13.9291 8.9414 12.7C8.7518 12.5794 8.59171 12.4178 8.47298 12.227C8.35424 12.0362 8.27989 11.8212 8.25541 11.5978C8.23093 11.3744 8.25695 11.1484 8.33155 10.9365C8.40615 10.7245 8.52742 10.532 8.6864 10.3732C8.68866 10.3704 8.69117 10.3679 8.6939 10.3657L12.8995 6.28661L11.9995 6.02974L7.27265 7.38067L4.70671 12.5116L9.31921 15.8069L14.7698 17.1691L17.6245 14.3116ZM22.2408 10.9141L19.9139 6.25567L18.2555 7.08536L20.5851 11.7438L22.2408 10.9141Z" fill="#00ADEF"/>
</svg>
