<svg width="20" height="20" viewBox="0 0 20 20" fill="none" xmlns="http://www.w3.org/2000/svg">
<path d="M18.3334 10H1.66675" stroke="#787887" stroke-width="2" stroke-linecap="round" stroke-linejoin="round"/>
<path d="M4.54175 4.25831L1.66675 9.99998V15C1.66675 15.442 1.84234 15.8659 2.1549 16.1785C2.46746 16.4911 2.89139 16.6666 3.33341 16.6666H16.6667C17.1088 16.6666 17.5327 16.4911 17.8453 16.1785C18.1578 15.8659 18.3334 15.442 18.3334 15V9.99998L15.4584 4.25831C15.3204 3.98064 15.1077 3.74696 14.8442 3.58355C14.5807 3.42014 14.2768 3.33348 13.9667 3.33331H6.03341C5.72334 3.33348 5.41947 3.42014 5.15595 3.58355C4.89244 3.74696 4.67973 3.98064 4.54175 4.25831Z" stroke="#787887" stroke-width="2" stroke-linecap="round" stroke-linejoin="round"/>
<path d="M5 13.3333H5.00833" stroke="#787887" stroke-width="2" stroke-linecap="round" stroke-linejoin="round"/>
<path d="M8.33325 13.3333H8.34159" stroke="#787887" stroke-width="2" stroke-linecap="round" stroke-linejoin="round"/>
</svg>
