<svg width="22" height="28" viewBox="0 0 22 28" fill="none" xmlns="http://www.w3.org/2000/svg">
<path d="M13.9999 8C14.7911 8 15.5644 7.76541 16.2222 7.32588C16.88 6.88636 17.3927 6.26164 17.6955 5.53074C17.9982 4.79983 18.0774 3.99556 17.9231 3.21964C17.7687 2.44372 17.3878 1.73098 16.8284 1.17157C16.269 0.612165 15.5562 0.231202 14.7803 0.0768607C14.0044 -0.0774802 13.2001 0.00173312 12.4692 0.304484C11.7383 0.607234 11.1136 1.11992 10.6741 1.77772C10.2345 2.43552 9.99994 3.20888 9.99994 4C9.99994 5.06087 10.4214 6.07828 11.1715 6.82843C11.9217 7.57858 12.9391 8 13.9999 8ZM13.9999 2C14.3955 2 14.7822 2.1173 15.1111 2.33706C15.44 2.55683 15.6963 2.86918 15.8477 3.23464C15.9991 3.60009 16.0387 4.00222 15.9615 4.39018C15.8843 4.77815 15.6939 5.13451 15.4142 5.41422C15.1345 5.69392 14.7781 5.8844 14.3901 5.96157C14.0022 6.03874 13.6 5.99914 13.2346 5.84776C12.8691 5.69639 12.5568 5.44004 12.337 5.11114C12.1172 4.78224 11.9999 4.39557 11.9999 4C11.9999 3.46957 12.2107 2.96086 12.5857 2.58579C12.9608 2.21072 13.4695 2 13.9999 2ZM21.9999 16C21.9999 16.2652 21.8946 16.5196 21.7071 16.7071C21.5195 16.8946 21.2652 17 20.9999 17C16.5862 17 14.3812 14.7738 12.6099 12.985C12.2674 12.6388 11.9399 12.31 11.6099 12.005L9.93119 15.865L14.5812 19.1863C14.7107 19.2788 14.8163 19.4009 14.8891 19.5424C14.962 19.684 14.9999 19.8408 14.9999 20V27C14.9999 27.2652 14.8946 27.5196 14.7071 27.7071C14.5195 27.8946 14.2652 28 13.9999 28C13.7347 28 13.4804 27.8946 13.2928 27.7071C13.1053 27.5196 12.9999 27.2652 12.9999 27V20.515L9.11619 17.74L4.91744 27.3988C4.83973 27.5775 4.71149 27.7296 4.54849 27.8364C4.38549 27.9432 4.19483 28.0001 3.99994 28C3.86263 28.0003 3.72677 27.9718 3.60119 27.9163C3.3581 27.8106 3.16691 27.6127 3.06963 27.3661C2.97236 27.1195 2.97697 26.8444 3.08244 26.6013L9.84244 11.055C8.67869 10.8488 7.22744 11.205 5.50494 12.1275C4.13119 12.8853 2.84903 13.7983 1.68369 14.8488C1.48918 15.023 1.23422 15.1142 0.973329 15.103C0.712433 15.0917 0.466295 14.9788 0.287528 14.7885C0.108761 14.5981 0.0115492 14.3454 0.0166722 14.0843C0.0217951 13.8232 0.128846 13.5745 0.314943 13.3913C0.627443 13.0975 8.02619 6.2375 12.6549 10.2563C13.1337 10.6713 13.5899 11.1313 14.0299 11.5775C15.7737 13.3375 17.4199 15 20.9999 15C21.2652 15 21.5195 15.1054 21.7071 15.2929C21.8946 15.4804 21.9999 15.7348 21.9999 16Z" fill="#FBFBFE"/>
</svg>
