<svg width="20" height="20" viewBox="0 0 20 20" fill="none" xmlns="http://www.w3.org/2000/svg">
<g clip-path="url(#clip0_24_598)">
<path d="M12.4999 5.83331H14.9999C15.5471 5.83331 16.0889 5.94109 16.5944 6.15048C17.1 6.35988 17.5593 6.66679 17.9462 7.0537C18.3331 7.44061 18.64 7.89994 18.8494 8.40547C19.0588 8.91099 19.1666 9.45281 19.1666 9.99998C19.1666 10.5472 19.0588 11.089 18.8494 11.5945C18.64 12.1 18.3331 12.5593 17.9462 12.9463C17.5593 13.3332 17.1 13.6401 16.5944 13.8495C16.0889 14.0589 15.5471 14.1666 14.9999 14.1666H12.4999M7.49992 14.1666H4.99992C4.45274 14.1666 3.91093 14.0589 3.4054 13.8495C2.89988 13.6401 2.44055 13.3332 2.05364 12.9463C1.27224 12.1649 0.833252 11.105 0.833252 9.99998C0.833252 8.89491 1.27224 7.8351 2.05364 7.0537C2.83504 6.2723 3.89485 5.83331 4.99992 5.83331H7.49992" stroke="#787887" stroke-width="2" stroke-linecap="round" stroke-linejoin="round"/>
<path d="M6.66675 10H13.3334" stroke="#787887" stroke-width="2" stroke-linecap="round" stroke-linejoin="round"/>
</g>
<defs>
<clipPath id="clip0_24_598">
<rect width="20" height="20" fill="white"/>
</clipPath>
</defs>
</svg>
