<svg width="16" height="16" viewBox="0 0 16 16" fill="none" xmlns="http://www.w3.org/2000/svg">
<g id="elements">
<path id="Vector 7261" d="M8.99984 3.53091C8.57756 3.40216 8.12976 3.33301 7.6665 3.33301C5.23729 3.33301 3.23309 5.23449 3.10542 7.66035C3.05643 8.59102 3.11274 9.58166 2.28126 10.2053C1.89426 10.4955 1.6665 10.951 1.6665 11.4348C1.6665 12.1002 2.1877 12.6663 2.8665 12.6663H12.4665C13.1453 12.6663 13.6665 12.1002 13.6665 11.4348C13.6665 10.951 13.4387 10.4955 13.0517 10.2053C13.034 10.192 13.0167 10.1786 12.9998 10.1649" stroke="#636488" stroke-width="1.5" stroke-linecap="round" stroke-linejoin="round"/>
<path id="Ellipse 1245" d="M6.6665 2.08301C6.6665 2.63529 7.11422 3.33301 7.6665 3.33301C8.21879 3.33301 8.6665 2.63529 8.6665 2.08301C8.6665 1.53072 8.21879 1.33301 7.6665 1.33301C7.11422 1.33301 6.6665 1.53072 6.6665 2.08301Z" stroke="#636488" stroke-width="1.5"/>
<path id="Ellipse 1984" d="M9.6665 12.666C9.6665 13.7706 8.77107 14.666 7.6665 14.666C6.56193 14.666 5.6665 13.7706 5.6665 12.666" stroke="#636488" stroke-width="1.5" stroke-linecap="round" stroke-linejoin="round"/>
<path id="Vector" d="M10.3665 4.7L13.6332 7.96667M14.3332 6.33333C14.3332 5.04467 13.2885 4 11.9998 4C10.7112 4 9.6665 5.04467 9.6665 6.33333C9.6665 7.622 10.7112 8.66667 11.9998 8.66667C13.2885 8.66667 14.3332 7.622 14.3332 6.33333Z" stroke="#636488" stroke-width="1.5" stroke-linecap="round"/>
</g>
</svg>
