<svg width="32" height="32" viewBox="0 0 32 32" fill="none" xmlns="http://www.w3.org/2000/svg">
<path d="M29.7074 2.29231C29.6146 2.19933 29.5043 2.12557 29.3829 2.07525C29.2615 2.02493 29.1314 1.99902 28.9999 1.99902C28.8685 1.99902 28.7384 2.02493 28.617 2.07525C28.4956 2.12557 28.3853 2.19933 28.2924 2.29231L21.7424 8.84356L21.0712 8.17106C20.3202 7.42225 19.303 7.00175 18.2424 7.00175C17.1819 7.00175 16.1647 7.42225 15.4137 8.17106L12.4999 11.0861L11.7074 10.2923C11.5198 10.1047 11.2653 9.99925 10.9999 9.99925C10.7346 9.99925 10.4801 10.1047 10.2924 10.2923C10.1048 10.4799 9.99939 10.7344 9.99939 10.9998C9.99939 11.2652 10.1048 11.5197 10.2924 11.7073L11.0862 12.4998L8.1712 15.4136C7.79966 15.785 7.50495 16.226 7.30387 16.7114C7.10279 17.1967 6.9993 17.7169 6.9993 18.2423C6.9993 18.7677 7.10279 19.2879 7.30387 19.7733C7.50495 20.2586 7.79966 20.6996 8.1712 21.0711L8.8437 21.7423L2.29245 28.2923C2.19954 28.3852 2.12584 28.4955 2.07555 28.6169C2.02527 28.7383 1.99939 28.8684 1.99939 28.9998C1.99939 29.1312 2.02527 29.2613 2.07555 29.3827C2.12584 29.5041 2.19954 29.6144 2.29245 29.7073C2.48009 29.895 2.73458 30.0004 2.99995 30.0004C3.13134 30.0004 3.26145 29.9745 3.38284 29.9242C3.50424 29.8739 3.61454 29.8002 3.70745 29.7073L10.2574 23.1561L10.9287 23.8286C11.3001 24.2001 11.7411 24.4948 12.2265 24.6959C12.7119 24.897 13.2321 25.0005 13.7574 25.0005C14.2828 25.0005 14.803 24.897 15.2884 24.6959C15.7738 24.4948 16.2147 24.2001 16.5862 23.8286L19.4999 20.9136L20.2924 21.7073C20.3854 21.8002 20.4957 21.8739 20.6171 21.9242C20.7384 21.9745 20.8686 22.0004 20.9999 22.0004C21.1313 22.0004 21.2614 21.9745 21.3828 21.9242C21.5042 21.8739 21.6145 21.8002 21.7074 21.7073C21.8004 21.6144 21.8741 21.5041 21.9243 21.3827C21.9746 21.2613 22.0005 21.1312 22.0005 20.9998C22.0005 20.8684 21.9746 20.7383 21.9243 20.6169C21.8741 20.4955 21.8004 20.3852 21.7074 20.2923L20.9137 19.4998L23.8287 16.5861C24.2002 16.2146 24.4949 15.7736 24.696 15.2883C24.8971 14.8029 25.0006 14.2827 25.0006 13.7573C25.0006 13.2319 24.8971 12.7117 24.696 12.2264C24.4949 11.741 24.2002 11.3 23.8287 10.9286L23.1562 10.2573L29.7074 3.70731C29.8004 3.61444 29.8742 3.50415 29.9245 3.38275C29.9748 3.26135 30.0007 3.13123 30.0007 2.99981C30.0007 2.86839 29.9748 2.73827 29.9245 2.61687C29.8742 2.49547 29.8004 2.38518 29.7074 2.29231ZM15.1712 22.4173C14.7962 22.7921 14.2877 23.0026 13.7574 23.0026C13.2272 23.0026 12.7187 22.7921 12.3437 22.4173L9.5862 19.6561C9.21141 19.281 9.00087 18.7725 9.00087 18.2423C9.00087 17.7121 9.21141 17.2036 9.5862 16.8286L12.4999 13.9136L18.0862 19.4998L15.1712 22.4173ZM22.4137 15.1748L19.4999 18.0861L13.9137 12.4998L16.8287 9.58606C17.2037 9.21127 17.7122 9.00074 18.2424 9.00074C18.7727 9.00074 19.2812 9.21127 19.6562 9.58606L22.4137 12.3361C22.6004 12.5219 22.7486 12.7428 22.8496 12.986C22.9507 13.2293 23.0028 13.4901 23.0028 13.7536C23.0028 14.017 22.9507 14.2778 22.8496 14.5211C22.7486 14.7643 22.6004 14.9852 22.4137 15.1711V15.1748ZM11.0512 4.31606C10.9673 4.06444 10.9868 3.7898 11.1055 3.55256C11.2241 3.31533 11.4321 3.13493 11.6837 3.05106C11.9353 2.96719 12.21 2.9867 12.4472 3.10532C12.6844 3.22394 12.8648 3.43194 12.9487 3.68356L13.9487 6.68356C13.9902 6.80815 14.0068 6.9397 13.9975 7.0707C13.9882 7.2017 13.9532 7.32959 13.8944 7.44706C13.8357 7.56452 13.7544 7.66927 13.6552 7.75532C13.556 7.84137 13.4408 7.90703 13.3162 7.94856C13.0646 8.03243 12.7899 8.01292 12.5527 7.8943C12.4352 7.83557 12.3305 7.75427 12.2444 7.65506C12.1584 7.55584 12.0927 7.44065 12.0512 7.31606L11.0512 4.31606ZM3.0512 11.6836C3.09272 11.559 3.15838 11.4438 3.24442 11.3445C3.33047 11.2453 3.43522 11.164 3.55269 11.1053C3.67016 11.0466 3.79804 11.0115 3.92905 11.0022C4.06005 10.9929 4.1916 11.0095 4.3162 11.0511L7.3162 12.0511C7.44079 12.0926 7.55598 12.1583 7.65519 12.2443C7.75441 12.3304 7.8357 12.4351 7.89444 12.5526C7.95317 12.67 7.98819 12.7979 7.9975 12.9289C8.00681 13.0599 7.99023 13.1915 7.9487 13.3161C7.90717 13.4407 7.8415 13.5558 7.75545 13.6551C7.6694 13.7543 7.56466 13.8356 7.44719 13.8943C7.32972 13.953 7.20184 13.9881 7.07084 13.9974C6.93984 14.0067 6.80829 13.9901 6.6837 13.9486L3.6837 12.9486C3.5591 12.907 3.4439 12.8414 3.34468 12.7553C3.24546 12.6693 3.16416 12.5645 3.10543 12.4471C3.0467 12.3296 3.01168 12.2017 3.00237 12.0707C2.99306 11.9397 3.00966 11.8082 3.0512 11.6836ZM28.9487 20.3161C28.9072 20.4407 28.8415 20.5559 28.7555 20.6551C28.6694 20.7543 28.5647 20.8356 28.4472 20.8943C28.3297 20.9531 28.2018 20.9881 28.0708 20.9974C27.9398 21.0067 27.8083 20.9901 27.6837 20.9486L24.6837 19.9486C24.4321 19.8647 24.2241 19.6843 24.1055 19.4471C23.9868 19.2098 23.9673 18.9352 24.0512 18.6836C24.1351 18.4319 24.3155 18.2239 24.5527 18.1053C24.7899 17.9867 25.0646 17.9672 25.3162 18.0511L28.3162 19.0511C28.4408 19.0926 28.556 19.1582 28.6552 19.2443C28.7544 19.3303 28.8357 19.4351 28.8945 19.5526C28.9532 19.67 28.9882 19.7979 28.9975 19.9289C29.0068 20.0599 28.9902 20.1915 28.9487 20.3161ZM20.9487 27.6836C21.0326 27.9352 21.0131 28.2098 20.8944 28.4471C20.7758 28.6843 20.5678 28.8647 20.3162 28.9486C20.0646 29.0324 19.7899 29.0129 19.5527 28.8943C19.3155 28.7757 19.1351 28.5677 19.0512 28.3161L18.0512 25.3161C17.9673 25.0644 17.9868 24.7898 18.1055 24.5526C18.2241 24.3153 18.4321 24.1349 18.6837 24.0511C18.9353 23.9672 19.21 23.9867 19.4472 24.1053C19.6844 24.2239 19.8648 24.4319 19.9487 24.6836L20.9487 27.6836Z" fill="#FBFBFE"/>
</svg>
